<svg  class="facebookIcon" xmlns="http://www.w3.org/2000/svg" width="27" height="27" viewBox="0 0 23.615 23.651">
    <path class="a"
          d="M-12.948,88.625v23.651H-36.563V88.625ZM-24.1,98.434V97.054a.524.524,0,0,1,.272-.509,1.3,1.3,0,0,1,.636-.148,1.585,1.585,0,0,1,.345.039q.163.036.309.073c.1.024.206.048.327.07l.327-1.813q-.182-.036-.509-.109-.291-.036-.708-.073t-1-.036a2.409,2.409,0,0,0-1.163.236,2.158,2.158,0,0,0-.727.636,1.872,1.872,0,0,0-.345.926,9.131,9.131,0,0,0-.054.923v1.166h-1.2v1.78h1.2v6.137H-24.1v-6.137h1.817l.145-1.78Z"
          transform="translate(36.563 -88.625)"/>
</svg>