<svg class="instagramIcon" xmlns="http://www.w3.org/2000/svg" width="27" height="27" viewBox="0 0 23.615 23.615">
<!--    <defs>-->
<!--        <style>.a{fill:#fff;}</style>-->
<!--    </defs>-->
    <path class="a"
          d="M-2.94,88.637v23.615H-26.555V88.637Zm-5.922,8.171a2.2,2.2,0,0,0-.672-1.614,2.2,2.2,0,0,0-1.617-.672h-7.23A2.2,2.2,0,0,0-20,95.195a2.2,2.2,0,0,0-.672,1.614v7.233A2.2,2.2,0,0,0-20,105.658a2.2,2.2,0,0,0,1.617.669h7.23a2.2,2.2,0,0,0,1.617-.669,2.2,2.2,0,0,0,.672-1.617V96.808Zm-2.652,3.636a2.766,2.766,0,0,0-.073-.636,5.121,5.121,0,0,0-.182-.6h1.78v4.835a1.12,1.12,0,0,1-.327.833,1.12,1.12,0,0,1-.836.327h-7.23a1.076,1.076,0,0,1-.8-.327,1.12,1.12,0,0,1-.327-.833V99.206h1.744a3.721,3.721,0,0,0-.218,1.238,3.11,3.11,0,0,0,.945,2.286,3.105,3.105,0,0,0,2.289.945,3.105,3.105,0,0,0,2.289-.945A3.11,3.11,0,0,0-11.514,100.444Zm-3.252,2.071a2,2,0,0,1-1.477-.618,1.994,1.994,0,0,1-.612-1.453,1.852,1.852,0,0,1,.109-.654,3.16,3.16,0,0,1,.288-.584,2.141,2.141,0,0,1,.736-.636,2.076,2.076,0,0,1,.957-.233,1.948,1.948,0,0,1,.936.233,2.205,2.205,0,0,1,.721.636,2.178,2.178,0,0,1,.4,1.238,2,2,0,0,1-.615,1.453A1.955,1.955,0,0,1-14.766,102.515ZM-12.2,97.9l-.036-2h2.034v2Z"
          transform="translate(26.555 -88.637)"/>
</svg>